<svg width="28" height="28" viewBox="0 0 28 28" fill="none" xmlns="http://www.w3.org/2000/svg">
  <path d="M17.1968 6.50702C16.4216 6.50702 15.6431 6.50702 14.8679 6.50702C13.5458 6.50702 12.2204 6.50702 10.8983 6.50702C9.83034 6.50702 8.75914 6.4652 7.7185 6.76276C6.65373 7.06836 5.67261 7.63451 4.87323 8.40172C4.07063 9.17215 3.47874 10.1404 3.12972 11.1939C2.77104 12.2732 2.72279 13.4409 2.92706 14.5555C3.12811 15.6605 3.63636 16.6673 4.32798 17.5423C5.57932 19.125 7.58018 20.0353 9.58586 20.0369C10.2726 20.0385 10.9594 20.0369 11.6478 20.0369C12.9699 20.0369 14.2953 20.0369 15.6174 20.0369C16.8333 20.0369 18.0461 20.0369 19.262 20.0369C20.1177 20.0369 20.9878 20.0836 21.8258 19.8664C22.8906 19.5898 23.9023 18.9609 24.5875 18.0956C24.7853 17.8463 24.9719 17.5922 25.1279 17.3139C25.2791 17.0437 25.3997 16.7526 25.5075 16.4614C25.7005 15.9307 25.7938 15.3549 25.8002 14.7919C25.8131 13.695 25.4753 12.5498 24.8191 11.662C24.6325 11.4111 24.4427 11.1666 24.2207 10.9478C23.9956 10.7259 23.7447 10.5296 23.4873 10.3463C23.0337 10.0246 22.5126 9.78656 21.9802 9.62733C21.123 9.37159 20.2319 9.41341 19.3505 9.41341C18.1442 9.41341 16.9379 9.41341 15.7316 9.41341C14.3998 9.41341 13.0713 9.41341 11.7395 9.41341C11.0254 9.41341 10.3112 9.41341 9.59712 9.41341C8.60956 9.41341 7.67346 9.78335 6.94164 10.4476C6.03128 11.2743 5.59219 12.5434 5.74659 13.7529C5.90261 14.9705 6.63443 16.0754 7.72332 16.6625C8.35221 17.0019 9.03257 17.1322 9.74026 17.1322C10.7889 17.1322 11.8376 17.1322 12.8863 17.1322C14.1151 17.1322 15.3407 17.1322 16.5696 17.1322C16.7786 17.1322 16.9877 17.1322 17.2001 17.1322C17.6761 17.1322 18.1313 16.7124 18.1104 16.2218C18.0895 15.728 17.7083 15.3114 17.2001 15.3114C16.9363 15.3114 16.6725 15.3114 16.4119 15.3114C15.7847 15.3114 15.1574 15.3114 14.5301 15.3114C13.7806 15.3114 13.0278 15.3114 12.2783 15.3114C11.6478 15.3114 11.0141 15.3114 10.3836 15.3114C10.1134 15.3114 9.8432 15.3114 9.57299 15.3114C9.45075 15.3114 9.33012 15.3034 9.20788 15.2905C9.28509 15.3002 9.36229 15.3098 9.43949 15.3195C9.18215 15.2873 8.93284 15.2214 8.69319 15.1265C8.76557 15.157 8.83956 15.186 8.91194 15.2165C8.66907 15.1152 8.44067 14.9865 8.23158 14.8257C8.29592 14.874 8.36186 14.9238 8.42459 14.9737C8.21871 14.8128 8.03375 14.6279 7.87291 14.422C7.92116 14.4863 7.97102 14.5523 8.02088 14.615C7.86165 14.4043 7.73137 14.1775 7.63004 13.9346C7.6606 14.007 7.68955 14.081 7.72011 14.1534C7.6236 13.9121 7.55927 13.6644 7.5271 13.4071C7.53675 13.4843 7.5464 13.5615 7.55605 13.6387C7.52871 13.3958 7.5271 13.153 7.55605 12.9085C7.5464 12.9857 7.53675 13.0629 7.5271 13.1401C7.55927 12.8827 7.62521 12.6334 7.72011 12.3938C7.68955 12.4662 7.6606 12.5402 7.63004 12.6125C7.73137 12.3697 7.86004 12.1413 8.02088 11.9322C7.97263 11.9965 7.92277 12.0625 7.87291 12.1252C8.03375 11.9193 8.21871 11.7343 8.42459 11.5735C8.36025 11.6218 8.29431 11.6716 8.23158 11.7215C8.44228 11.5622 8.66907 11.432 8.91194 11.3306C8.83956 11.3612 8.76557 11.3901 8.69319 11.4207C8.93445 11.3242 9.18215 11.2599 9.43949 11.2277C9.36229 11.2373 9.28509 11.247 9.20788 11.2566C9.65984 11.2036 10.1279 11.2341 10.5815 11.2341C11.4757 11.2341 12.37 11.2341 13.2643 11.2341C14.3548 11.2341 15.4453 11.2341 16.539 11.2341C17.4622 11.2341 18.3887 11.2341 19.3119 11.2341C19.7043 11.2341 20.0984 11.2325 20.4925 11.2341C20.6823 11.2341 20.8688 11.247 21.057 11.2711C20.9798 11.2615 20.9026 11.2518 20.8254 11.2422C21.2002 11.292 21.5653 11.3869 21.9159 11.5285C21.8435 11.4979 21.7695 11.469 21.6972 11.4384C22.0574 11.5864 22.3968 11.781 22.7072 12.0142C22.6429 11.966 22.577 11.9161 22.5142 11.8662C22.8295 12.1075 23.1109 12.389 23.3538 12.7058C23.3056 12.6415 23.2557 12.5755 23.2058 12.5128C23.4407 12.8248 23.6337 13.1626 23.7816 13.5229C23.7511 13.4505 23.7221 13.3765 23.6916 13.3041C23.8331 13.6548 23.928 14.0199 23.9779 14.3946C23.9682 14.3174 23.9586 14.2402 23.9489 14.163C23.9956 14.5378 23.9956 14.9174 23.9489 15.2921C23.9586 15.2149 23.9682 15.1377 23.9779 15.0605C23.928 15.4353 23.8331 15.8004 23.6916 16.151C23.7221 16.0786 23.7511 16.0047 23.7816 15.9323C23.6337 16.2926 23.4391 16.6319 23.2058 16.9424C23.2541 16.878 23.304 16.8121 23.3538 16.7494C23.1126 17.0646 22.8311 17.3461 22.5142 17.5889C22.5786 17.5407 22.6445 17.4908 22.7072 17.441C22.3952 17.6758 22.0574 17.8688 21.6972 18.0168C21.7695 17.9862 21.8435 17.9573 21.9159 17.9267C21.5653 18.0682 21.2002 18.1631 20.8254 18.213C20.9026 18.2034 20.9798 18.1937 21.057 18.184C20.5552 18.2452 20.0373 18.2194 19.5322 18.2194C18.6283 18.2194 17.7276 18.2194 16.8237 18.2194C15.7171 18.2194 14.6105 18.2194 13.5072 18.2194C12.5743 18.2194 11.6382 18.2194 10.7053 18.2194C10.2743 18.2194 9.83999 18.2291 9.40893 18.2162C9.20949 18.2098 9.01166 18.1953 8.81543 18.1696C8.89263 18.1792 8.96984 18.1889 9.04704 18.1985C8.55648 18.1326 8.07717 18.0071 7.61717 17.8238C7.68955 17.8543 7.76353 17.8833 7.83591 17.9138C7.34857 17.716 6.89178 17.4554 6.47359 17.137C6.53793 17.1852 6.60387 17.2351 6.6666 17.285C6.25324 16.9681 5.88331 16.5982 5.56484 16.1832C5.61309 16.2475 5.66295 16.3135 5.71282 16.3762C5.39435 15.958 5.13379 15.5012 4.93596 15.0139C4.96652 15.0863 4.99547 15.1602 5.02603 15.2326C4.84267 14.7726 4.71721 14.2933 4.65127 13.8028C4.66092 13.88 4.67057 13.9572 4.68022 14.0344C4.61588 13.5293 4.61588 13.0178 4.68022 12.5096C4.67057 12.5868 4.66092 12.664 4.65127 12.7412C4.71721 12.2506 4.84267 11.7713 5.02603 11.3113C4.99547 11.3837 4.96652 11.4577 4.93596 11.5301C5.13379 11.0427 5.39435 10.5859 5.71282 10.1678C5.66456 10.2321 5.6147 10.298 5.56484 10.3608C5.8817 9.9474 6.25163 9.57747 6.6666 9.259C6.60227 9.30726 6.53632 9.35712 6.47359 9.40698C6.89178 9.08851 7.34856 8.82795 7.83591 8.63012C7.76353 8.66068 7.68955 8.68963 7.61717 8.72019C8.07717 8.53683 8.55648 8.41138 9.04704 8.34543C8.96984 8.35508 8.89263 8.36473 8.81543 8.37438C9.24005 8.3197 9.66628 8.32452 10.0925 8.32613C10.678 8.32613 11.2666 8.32613 11.8521 8.32613C12.6177 8.32613 13.3801 8.32613 14.1457 8.32613C14.8244 8.32613 15.5064 8.32613 16.1851 8.32613C16.5197 8.32613 16.8542 8.33256 17.1888 8.32613C17.1952 8.32613 17.1984 8.32613 17.2049 8.32613C17.681 8.32613 18.1361 7.90634 18.1152 7.41577C18.0847 6.92521 17.7051 6.50702 17.1968 6.50702Z" fill="currentColor"/>
</svg>
