<svg width="19" height="24" viewBox="0 0 19 24" fill="none" xmlns="http://www.w3.org/2000/svg">
<path fill-rule="evenodd" clip-rule="evenodd" d="M0 3.14673V20.8532C0 22.5101 1.34314 23.8532 3 23.8532H15.0761C16.7329 23.8532 18.0761 22.5101 18.0761 20.8532V8.24625C18.0761 7.46427 17.7707 6.71319 17.2251 6.15302L12.2581 1.0535C11.6934 0.473735 10.9184 0.146729 10.109 0.146729H3C1.34315 0.146729 0 1.48987 0 3.14673ZM2 20.8532V3.14673C2 2.59444 2.44772 2.14673 3 2.14673H8.74186V7.48096C8.74186 8.58553 9.63728 9.48096 10.7419 9.48096H16.0761L16.0761 20.8532C16.0761 21.4055 15.6284 21.8532 15.0761 21.8532H3C2.44772 21.8532 2 21.4055 2 20.8532ZM15.7266 7.48096L10.8254 2.44899C10.7989 2.42178 10.771 2.39624 10.7419 2.37244V7.48096L15.7266 7.48096ZM5.51912 16.6304C4.96684 16.6304 4.51912 17.0782 4.51912 17.6304C4.51912 18.1827 4.96684 18.6304 5.51912 18.6304H12.5572C13.1094 18.6304 13.5572 18.1827 13.5572 17.6304C13.5572 17.0782 13.1094 16.6304 12.5572 16.6304H5.51912ZM4.51912 13.4077C4.51912 12.8554 4.96684 12.4077 5.51912 12.4077H12.5572C13.1094 12.4077 13.5572 12.8554 13.5572 13.4077C13.5572 13.96 13.1094 14.4077 12.5572 14.4077H5.51912C4.96684 14.4077 4.51912 13.96 4.51912 13.4077Z" fill="currentColor"/>
</svg>
